<?xml version="1.0" standalone="no"?><!-- Generator: Gravit.io --><svg xmlns="http://www.w3.org/2000/svg" xmlns:xlink="http://www.w3.org/1999/xlink" style="isolation:isolate" viewBox="0 0 377.4 695.151" width="377.4" height="695.151"><defs><clipPath id="_clipPath_upqv5jYUauzAzVjP0ZxVYFI1FYDliaLc"><rect width="377.4" height="695.151"/></clipPath></defs><g clip-path="url(#_clipPath_upqv5jYUauzAzVjP0ZxVYFI1FYDliaLc)"><clipPath id="_clipPath_kbPT9xMc2hTWu3UJcCaPMaE0qafVOsZT"><rect x="0" y="0" width="377.4" height="695.151" transform="matrix(1,0,0,1,0,0)" fill="rgb(255,255,255)"/></clipPath><g clip-path="url(#_clipPath_kbPT9xMc2hTWu3UJcCaPMaE0qafVOsZT)"><g><path d=" M 137.789 674.076 L 94.35 630.635 L 50.911 587.194 C 22.812 559.095 0 504.02 0 464.282 L 0 347.575 L 0 230.868 C 0 191.13 22.812 136.055 50.911 107.956 L 94.35 64.515 L 137.789 21.074 C 165.888 -7.025 211.512 -7.025 239.611 21.074 L 283.05 64.515 L 326.489 107.956 C 354.588 136.055 377.4 191.13 377.4 230.868 L 377.4 347.575 L 377.4 464.282 C 377.4 504.02 354.588 559.095 326.489 587.194 L 283.05 630.635 L 239.611 674.076 C 211.512 702.175 165.888 702.175 137.789 674.076 Z " fill="rgb(243,171,253)"/></g></g></g></svg>